<?xml version="1.0" standalone="no"?>
<!DOCTYPE svg PUBLIC "-//W3C//DTD SVG 20010904//EN"
 "http://www.w3.org/TR/2001/REC-SVG-20010904/DTD/svg10.dtd">
<svg version="1.0" xmlns="http://www.w3.org/2000/svg"
 width="100%" height="100%" viewBox="0 0 2784.000000 1536.000000"
 preserveAspectRatio="xMidYMid meet">
<metadata>
Created by potrace 1.16, written by Peter Selinger 2001-2019
</metadata>
<g transform="translate(0.000000,1536.000000) scale(0.100000,-0.100000)"
fill="currentColor" stroke="none">

<path d="M11985 10364 c-33 -8 -101 -35 -151 -59 -142 -70 -235 -174 -322
-360 -57 -121 -92 -354 -73 -488 13 -93 15 -403 2 -411 -4 -3 -11 -24 -15 -47
-6 -37 -19 -69 -47 -119 -5 -8 -14 -26 -21 -40 -6 -14 -26 -57 -44 -97 -19
-40 -38 -89 -43 -110 -6 -21 -19 -64 -30 -95 -11 -31 -23 -79 -27 -105 -3 -26
-10 -53 -15 -58 -24 -31 -51 -804 -31 -880 6 -22 18 -110 27 -195 8 -85 20
-180 25 -211 6 -30 10 -72 10 -92 0 -20 4 -56 10 -79 32 -139 39 -178 45 -228
4 -30 13 -68 20 -85 7 -16 16 -49 20 -72 4 -24 11 -45 16 -49 5 -3 9 -18 9
-34 0 -33 39 -140 51 -140 5 0 9 -9 9 -20 0 -20 42 -103 66 -131 8 -8 14 -23
14 -31 0 -9 3 -18 8 -20 4 -1 20 -23 37 -47 27 -40 89 -108 126 -137 45 -36
229 -241 229 -254 0 -6 9 -15 20 -22 11 -7 20 -18 20 -25 0 -7 5 -13 10 -13 6
0 10 -9 10 -20 0 -11 7 -23 15 -26 8 -4 15 -14 15 -24 0 -10 7 -23 15 -30 8
-7 15 -19 15 -27 0 -8 7 -21 15 -29 8 -9 15 -26 15 -39 0 -13 6 -30 13 -37 14
-13 23 -54 36 -160 8 -72 18 -83 27 -29 4 23 11 44 15 47 5 3 9 14 9 25 0 10
4 19 10 19 5 0 15 20 21 45 6 25 15 45 20 45 5 0 9 7 9 15 0 43 157 226 245
286 28 19 52 37 55 40 3 4 28 17 55 29 28 12 57 28 65 35 8 7 30 16 48 20 17
3 32 10 32 15 0 4 12 11 27 15 15 3 39 15 54 25 14 11 28 18 30 15 3 -2 22 7
44 20 22 14 52 30 68 36 15 6 27 15 27 20 0 5 13 9 29 9 17 0 32 4 35 9 5 8
71 41 166 84 25 11 56 26 70 32 14 7 49 20 78 29 28 10 52 22 52 27 0 5 17 9
38 10 20 0 55 3 77 7 58 11 151 -10 225 -50 61 -34 132 -70 173 -90 10 -5 35
-6 55 -2 40 7 134 48 155 67 21 19 56 37 72 37 8 0 15 4 15 8 0 5 24 15 54 22
76 18 203 9 248 -17 20 -12 54 -24 76 -28 22 -3 43 -13 46 -21 3 -8 14 -14 24
-14 10 0 27 -7 38 -15 10 -8 26 -15 35 -15 9 0 27 -9 41 -19 13 -11 37 -23 51
-26 15 -4 27 -11 27 -15 0 -5 10 -11 23 -15 27 -8 67 -24 87 -36 8 -5 23 -12
33 -15 9 -4 17 -10 17 -15 0 -4 17 -11 37 -15 21 -4 44 -13 51 -21 8 -8 27
-17 43 -20 16 -3 29 -9 29 -14 0 -4 19 -14 43 -21 23 -6 44 -15 47 -19 9 -12
80 -49 94 -49 8 0 16 -3 18 -7 2 -5 32 -28 68 -53 35 -24 77 -58 91 -75 15
-16 37 -42 50 -56 13 -14 31 -36 39 -49 8 -12 21 -29 28 -36 16 -16 92 -167
92 -182 0 -24 41 -105 49 -96 5 5 11 42 13 83 2 46 8 76 16 79 7 2 12 18 12
37 0 18 7 38 15 45 8 7 15 21 15 32 0 11 9 31 20 45 11 14 20 32 20 39 0 8 3
14 8 14 4 0 16 17 27 38 27 51 107 151 123 151 6 1 12 6 12 11 0 13 52 73 99
115 19 16 41 37 50 46 82 86 112 120 136 159 15 25 31 47 35 50 4 3 12 21 19
42 7 20 18 39 26 42 8 3 15 16 15 30 0 13 6 26 14 29 7 3 16 24 20 46 3 23 10
41 14 41 4 0 18 35 31 78 13 42 27 86 32 97 11 27 30 119 36 180 3 28 9 54 14
60 5 5 9 20 9 35 0 14 7 55 14 91 8 37 16 93 17 125 1 33 7 62 13 66 6 4 12
56 14 120 2 62 8 117 13 122 5 6 9 34 9 64 0 29 5 63 12 75 8 15 11 85 10 232
-4 404 -25 641 -73 804 -11 35 -19 70 -19 78 0 7 -4 13 -8 13 -5 0 -14 24 -21
53 -7 28 -16 61 -21 72 -13 32 -45 105 -80 180 -67 142 -74 183 -66 381 3 87
9 192 12 232 6 73 -19 295 -36 317 -5 6 -11 28 -15 50 -4 22 -24 76 -46 120
-85 176 -214 287 -414 357 -87 31 -316 30 -425 -2 -41 -12 -102 -28 -135 -35
-84 -19 -219 -57 -300 -83 -57 -19 -251 -63 -360 -82 -60 -11 -157 -28 -215
-39 -207 -39 -339 -51 -555 -51 -180 0 -240 4 -418 30 -115 17 -216 34 -225
38 -9 5 -57 14 -107 21 -85 11 -139 24 -245 57 -25 8 -55 14 -66 14 -12 0 -35
7 -50 15 -16 8 -42 15 -57 15 -15 0 -41 7 -58 15 -16 9 -48 19 -72 24 -23 5
-103 25 -177 45 -117 32 -153 38 -270 41 -97 3 -152 0 -195 -11z"/>
<path d="M10632 8143 c-12 -15 -22 -31 -22 -36 0 -4 -8 -27 -19 -50 -29 -66
-45 -205 -37 -342 9 -162 42 -374 66 -417 6 -10 10 -31 10 -47 0 -17 4 -32 9
-35 5 -3 12 -21 15 -40 4 -20 13 -48 21 -63 8 -15 15 -36 15 -45 0 -9 4 -19 9
-22 4 -3 11 -26 15 -52 3 -25 15 -58 26 -74 11 -15 20 -39 20 -52 0 -13 7 -33
15 -44 8 -10 15 -27 15 -37 0 -10 7 -20 15 -23 8 -4 15 -17 15 -30 0 -13 4
-24 9 -24 5 0 11 -10 15 -22 6 -27 116 -148 133 -148 12 0 17 80 29 405 9 247
-13 684 -42 830 -32 162 -48 214 -84 263 -16 23 -30 44 -30 48 0 8 -60 57 -88
71 -13 7 -43 13 -66 13 -34 0 -47 -5 -64 -27z"/>
<path d="M17080 8152 c-14 -9 -30 -24 -36 -32 -7 -8 -24 -28 -38 -45 -14 -16
-26 -36 -26 -42 0 -7 -4 -13 -10 -13 -5 0 -13 -12 -16 -27 -4 -16 -11 -33 -15
-39 -10 -12 -24 -74 -40 -174 -6 -36 -14 -85 -19 -110 -15 -75 -18 -1109 -3
-1133 3 -4 32 20 65 54 57 59 128 171 128 202 0 8 6 20 14 26 7 6 16 29 20 51
3 22 11 40 16 40 6 0 10 10 10 23 1 12 7 33 15 47 8 14 14 37 15 53 0 15 4 27
9 27 6 0 13 20 17 45 3 25 10 45 14 45 5 0 11 19 15 43 4 23 11 47 15 52 4 6
13 46 20 90 7 44 15 85 20 90 4 6 10 30 14 55 3 25 10 68 15 95 15 76 13 290
-3 380 -15 82 -46 166 -74 198 -20 23 -107 22 -142 -1z"/>
<path d="M13890 5470 c-19 -17 -49 -44 -67 -60 -18 -17 -36 -30 -40 -30 -15 0
-99 -44 -106 -57 -4 -7 -16 -13 -25 -13 -24 0 -91 -25 -104 -38 -7 -7 -24 -12
-39 -12 -15 0 -40 -5 -56 -11 -15 -6 -71 -17 -123 -25 -146 -20 -263 -42 -285
-53 -11 -6 -39 -15 -62 -21 -24 -6 -43 -14 -43 -19 0 -4 -18 -17 -40 -30 -79
-44 -136 -164 -143 -299 -6 -116 32 -216 115 -307 39 -43 72 -66 147 -102 83
-41 106 -48 173 -51 74 -4 79 -3 135 32 58 37 163 131 163 148 0 5 11 21 25
36 14 15 25 32 25 38 0 15 89 84 115 88 11 3 52 11 91 20 78 17 247 20 329 6
28 -5 66 -12 85 -15 42 -8 107 -40 136 -69 12 -12 34 -41 50 -66 40 -63 120
-146 158 -164 17 -8 45 -24 61 -36 24 -16 46 -20 116 -20 68 0 88 3 93 15 3 8
16 15 30 15 14 0 31 6 38 13 7 6 20 13 28 15 23 5 73 43 117 90 40 42 74 101
108 186 16 41 21 191 6 200 -4 3 -11 23 -14 45 -3 22 -12 48 -21 56 -9 9 -16
23 -16 31 0 19 -69 94 -86 94 -7 0 -17 7 -22 15 -11 21 -155 72 -228 80 -33 4
-63 11 -69 15 -5 4 -44 11 -85 14 -85 8 -190 31 -237 52 -17 8 -38 14 -46 14
-9 0 -19 5 -22 10 -3 6 -19 10 -35 10 -15 0 -30 6 -33 14 -3 7 -36 29 -74 48
-63 32 -83 47 -148 109 -27 25 -33 24 -75 -11z"/>
</g>
</svg>
